<?xml version="1.0" ?><!DOCTYPE svg  PUBLIC '-//W3C//DTD SVG 1.1//EN'  'http://www.w3.org/Graphics/SVG/1.1/DTD/svg11.dtd'><svg enable-background="new 0 0 512 512" id="Layer_1" version="1.1" viewBox="0 0 512 512" xml:space="preserve" xmlns="http://www.w3.org/2000/svg" xmlns:xlink="http://www.w3.org/1999/xlink"><g id="XMLID_822_"><path d="M53.9,199.9c0,52.9,22.7,100.5,58.8,133.6v95.9v6.6v8.3c0,7.2,5.8,14.1,12.9,15.4   l188.5,33.4c7,1.2,12.7-3.2,12.9-9.9l0,0v-0.4l0.1-52.3l52.3,7.8c21,0,38.1-17.1,38.1-38.1v-35.9v-30.7v-0.4h17.4   c20.1,0,28.9-14.6,19.6-32.4l-36.9-70.5v-5.9v-24.2c0,0,0,0,0,0c0-72.7-42.9-135.4-104.8-164.2c-23.5-11.1-49.7-17.4-77.5-17.4   C135,18.6,53.9,99.8,53.9,199.9z M101.4,200.3c0-74.5,60.4-134.9,134.9-134.9c74.5,0,134.9,60.4,134.9,134.9   c0,74.5-60.4,134.9-134.9,134.9C161.8,335.2,101.4,274.8,101.4,200.3z" fill="#455A64" id="XMLID_1548_"/><path d="M236.3,97.3c10.2,0,18.4,8.3,18.4,18.4s-8.3,18.4-18.4,18.4c-36.4,0-66.1,29.6-66.1,66.1   c0,10.2-8.3,18.4-18.4,18.4s-18.4-8.3-18.4-18.4C133.3,143.5,179.5,97.3,236.3,97.3z" fill="#455A64" id="XMLID_1567_"/></g></svg>
