<?xml version="1.0" ?><svg enable-background="new 0 0 515.91 728.5" height="512" id="Layer_1" version="1.1" viewBox="0 0 512.00003 512" width="512" xml:space="preserve" xmlns="http://www.w3.org/2000/svg" xmlns:cc="http://creativecommons.org/ns#" xmlns:dc="http://purl.org/dc/elements/1.1/" xmlns:inkscape="http://www.inkscape.org/namespaces/inkscape" xmlns:rdf="http://www.w3.org/1999/02/22-rdf-syntax-ns#" xmlns:sodipodi="http://sodipodi.sourceforge.net/DTD/sodipodi-0.dtd" xmlns:svg="http://www.w3.org/2000/svg"><defs id="defs7"/><g id="g17750" style="fill:#FFFFFF;fill-opacity:1" transform="matrix(0.99448456,0,0,0.99448456,8007.7904,-57043.402)"><path d="m -7409.443,57840.461 c 0,29.063 -23.5605,52.624 -52.6239,52.624 -29.0634,0 -52.6239,-23.561 -52.6239,-52.624 0,-29.063 23.5605,-52.624 52.6239,-52.624 29.0634,0 52.6239,23.561 52.6239,52.624 z" id="path17518" style="fill:#FFFFFF;fill-opacity:1;stroke:none" transform="matrix(0.27983539,-0.30722496,0.30722496,0.27983539,-23364.061,39082.072)"/><path d="m -7711.4062,58027.656 -87.8438,88.063 a 8.0100428,8.0100428 0 1 0 11.3438,11.312 l 88.3124,-88.531 c -4.7517,-2.532 -8.8769,-6.156 -11.8124,-10.844 z" id="path17520" style="font-size:medium;font-style:normal;font-variant:normal;font-weight:normal;font-stretch:normal;text-indent:0;text-align:start;text-decoration:none;line-height:normal;letter-spacing:normal;word-spacing:normal;text-transform:none;direction:ltr;block-progression:tb;writing-mode:lr-tb;text-anchor:start;baseline-shift:baseline;color:#000000;fill:#FFFFFF;fill-opacity:1;stroke:none;stroke-width:15.99999905;marker:none;visibility:visible;display:inline;overflow:visible;enable-background:accumulate;font-family:Sans;-inkscape-font-specification:Sans" transform="translate(0,-448)"/><path d="m -7409.443,57840.461 c 0,29.063 -23.5605,52.624 -52.6239,52.624 -29.0634,0 -52.6239,-23.561 -52.6239,-52.624 0,-29.063 23.5605,-52.624 52.6239,-52.624 29.0634,0 52.6239,23.561 52.6239,52.624 z" id="path17528" style="fill:#FFFFFF;fill-opacity:1;stroke:none" transform="matrix(0.10038923,-0.40325802,0.40325802,0.10038923,-30324.298,48704.853)"/><path d="m -7765.2812,57999.156 -35.9688,119.906 a 8.0083868,8.0083868 0 0 0 15.3438,4.594 L -7749.75,58003 c -5.3885,-0.188 -10.7547,-1.472 -15.5312,-3.844 z" id="path17530" style="font-size:medium;font-style:normal;font-variant:normal;font-weight:normal;font-stretch:normal;text-indent:0;text-align:start;text-decoration:none;line-height:normal;letter-spacing:normal;word-spacing:normal;text-transform:none;direction:ltr;block-progression:tb;writing-mode:lr-tb;text-anchor:start;baseline-shift:baseline;color:#000000;fill:#FFFFFF;fill-opacity:1;stroke:none;stroke-width:15.99999905;marker:none;visibility:visible;display:inline;overflow:visible;enable-background:accumulate;font-family:Sans;-inkscape-font-specification:Sans" transform="translate(0,-448)"/><path d="m -7409.443,57840.461 c 0,29.063 -23.5605,52.624 -52.6239,52.624 -29.0634,0 -52.6239,-23.561 -52.6239,-52.624 0,-29.063 23.5605,-52.624 52.6239,-52.624 29.0634,0 52.6239,23.561 52.6239,52.624 z" id="path17534" style="fill:#FFFFFF;fill-opacity:1;stroke:none" transform="matrix(-0.32324683,-0.26116376,0.26116376,-0.32324683,-25428.595,74324.983)"/><path d="m -7879.25,58040.344 c -0.6528,1.348 -1.3844,2.65 -2.25,3.906 -2.0282,3.471 -4.6903,6.318 -7.75,8.594 l 90.5938,74.687 a 8.0020742,8.0020742 0 1 0 10.1874,-12.343 l -90.7812,-74.844 z" id="path17536" style="font-size:medium;font-style:normal;font-variant:normal;font-weight:normal;font-stretch:normal;text-indent:0;text-align:start;text-decoration:none;line-height:normal;letter-spacing:normal;word-spacing:normal;text-transform:none;direction:ltr;block-progression:tb;writing-mode:lr-tb;text-anchor:start;baseline-shift:baseline;color:#000000;fill:#FFFFFF;fill-opacity:1;stroke:none;stroke-width:15.99999905;marker:none;visibility:visible;display:inline;overflow:visible;enable-background:accumulate;font-family:Sans;-inkscape-font-specification:Sans" transform="translate(0,-448)"/><path d="m -7571.6584,57736.785 c -15.1044,-6.392 -32.7557,0.761 -39.1481,15.866 -6.3922,15.104 0.7614,32.756 15.8657,39.148 15.1043,6.392 32.7558,-0.762 39.148,-15.866 6.3924,-15.104 -0.7613,-32.756 -15.8656,-39.148 z m -6.2357,14.734 c 7.1411,3.022 10.3895,11.037 7.3672,18.179 -3.0221,7.14 -11.0373,10.389 -18.1783,7.367 -7.141,-3.022 -10.3893,-11.038 -7.3672,-18.179 3.0223,-7.141 11.0373,-10.389 18.1783,-7.367 z" id="path17542" style="font-size:medium;font-style:normal;font-variant:normal;font-weight:normal;font-stretch:normal;text-indent:0;text-align:start;text-decoration:none;line-height:normal;letter-spacing:normal;word-spacing:normal;text-transform:none;direction:ltr;block-progression:tb;writing-mode:lr-tb;text-anchor:start;baseline-shift:baseline;color:#000000;fill:#FFFFFF;fill-opacity:1;stroke:none;stroke-width:38.5017128;marker:none;visibility:visible;display:inline;overflow:visible;enable-background:accumulate;font-family:Sans;-inkscape-font-specification:Sans"/><path d="m -7793.5,58113.312 a 8.0007995,8.0007995 0 0 0 -3.25,15.407 l 193.3438,83.719 c -0.3794,-1.177 -0.5938,-2.409 -0.5938,-3.688 0,-4.56 2.578,-8.61 6.5625,-11.156 l -192.9687,-83.563 a 8.0007995,8.0007995 0 0 0 -3.0938,-0.719 z" id="path17544" style="font-size:medium;font-style:normal;font-variant:normal;font-weight:normal;font-stretch:normal;text-indent:0;text-align:start;text-decoration:none;line-height:normal;letter-spacing:normal;word-spacing:normal;text-transform:none;direction:ltr;block-progression:tb;writing-mode:lr-tb;text-anchor:start;baseline-shift:baseline;color:#000000;fill:#FFFFFF;fill-opacity:1;stroke:none;stroke-width:15.99999905;marker:none;visibility:visible;display:inline;overflow:visible;enable-background:accumulate;font-family:Sans;-inkscape-font-specification:Sans" transform="translate(0,-448)"/><path d="m -7996.9276,57775.763 c 15.5809,-5.123 24.1687,-22.122 19.0462,-37.704 -5.1223,-15.58 -22.1224,-24.168 -37.7032,-19.046 -15.5809,5.123 -24.1685,22.123 -19.0462,37.704 5.1225,15.581 22.1224,24.168 37.7032,19.046 z m -4.9968,-15.199 c -7.3663,2.421 -15.0856,-1.478 -17.5074,-8.844 -2.4217,-7.367 1.4777,-15.086 8.844,-17.508 7.3664,-2.422 15.0857,1.478 17.5074,8.844 2.4219,7.367 -1.4777,15.086 -8.844,17.508 z" id="path17550" style="font-size:medium;font-style:normal;font-variant:normal;font-weight:normal;font-stretch:normal;text-indent:0;text-align:start;text-decoration:none;line-height:normal;letter-spacing:normal;word-spacing:normal;text-transform:none;direction:ltr;block-progression:tb;writing-mode:lr-tb;text-anchor:start;baseline-shift:baseline;color:#000000;fill:#FFFFFF;fill-opacity:1;stroke:none;stroke-width:38.5017128;marker:none;visibility:visible;display:inline;overflow:visible;enable-background:accumulate;font-family:Sans;-inkscape-font-specification:Sans"/><path d="m -7793.3125,58113.312 a 8.0007995,8.0007995 0 0 0 -0.8125,0.03 8.0007995,8.0007995 0 0 0 -2.0938,0.468 l -189.8437,66.344 c 1.9588,3.029 3.125,6.798 3.125,10.906 0,1.797 -0.242,3.551 -0.6563,5.188 l 192.6563,-67.344 a 8.0007995,8.0007995 0 0 0 -2.375,-15.594 z" id="path17552" style="font-size:medium;font-style:normal;font-variant:normal;font-weight:normal;font-stretch:normal;text-indent:0;text-align:start;text-decoration:none;line-height:normal;letter-spacing:normal;word-spacing:normal;text-transform:none;direction:ltr;block-progression:tb;writing-mode:lr-tb;text-anchor:start;baseline-shift:baseline;color:#000000;fill:#FFFFFF;fill-opacity:1;stroke:none;stroke-width:15.99999905;marker:none;visibility:visible;display:inline;overflow:visible;enable-background:accumulate;font-family:Sans;-inkscape-font-specification:Sans" transform="translate(0,-448)"/><path d="m -7857.7001,57453.031 c 2.3477,16.232 17.604,27.634 33.8366,25.286 16.2323,-2.348 27.6335,-17.604 25.2859,-33.837 -2.3477,-16.232 -17.6044,-27.633 -33.8367,-25.286 -16.2326,2.348 -27.6335,17.605 -25.2858,33.837 z m 15.8345,-2.29 c -1.1099,-7.675 4.0669,-14.602 11.7415,-15.712 7.6742,-1.11 14.602,4.067 15.7119,11.741 1.11,7.675 -4.0672,14.602 -11.7414,15.712 -7.6746,1.11 -14.602,-4.067 -15.712,-11.741 z" id="path17560" style="font-size:medium;font-style:normal;font-variant:normal;font-weight:normal;font-stretch:normal;text-indent:0;text-align:start;text-decoration:none;line-height:normal;letter-spacing:normal;word-spacing:normal;text-transform:none;direction:ltr;block-progression:tb;writing-mode:lr-tb;text-anchor:start;baseline-shift:baseline;color:#000000;fill:#FFFFFF;fill-opacity:1;stroke:none;stroke-width:38.5017128;marker:none;visibility:visible;display:inline;overflow:visible;enable-background:accumulate;font-family:Sans;-inkscape-font-specification:Sans"/><path d="m -7818.0625,57910.719 c -2.7933,2.336 -6.4353,3.75 -10.4375,3.75 -1.8479,0 -3.6317,-0.32 -5.2812,-0.875 a 8.0007995,8.0007995 0 0 0 0,0.06 l 32.3124,208.938 a 8.0007995,8.0007995 0 1 0 15.8126,-2.438 l -32.3126,-208.937 a 8.0007995,8.0007995 0 0 0 -0.094,-0.5 z" id="path17562" style="font-size:medium;font-style:normal;font-variant:normal;font-weight:normal;font-stretch:normal;text-indent:0;text-align:start;text-decoration:none;line-height:normal;letter-spacing:normal;word-spacing:normal;text-transform:none;direction:ltr;block-progression:tb;writing-mode:lr-tb;text-anchor:start;baseline-shift:baseline;color:#000000;fill:#FFFFFF;fill-opacity:1;stroke:none;stroke-width:15.99999905;marker:none;visibility:visible;display:inline;overflow:visible;enable-background:accumulate;font-family:Sans;-inkscape-font-specification:Sans" transform="translate(0,-448)"/><path d="m -7409.443,57840.461 c 0,29.063 -23.5605,52.624 -52.6239,52.624 -29.0634,0 -52.6239,-23.561 -52.6239,-52.624 0,-29.063 23.5605,-52.624 52.6239,-52.624 29.0634,0 52.6239,23.561 52.6239,52.624 z" id="path17566" style="fill:#FFFFFF;fill-opacity:1;stroke:none" transform="matrix(0.26044993,0.32382227,-0.32382227,0.26044993,12968.61,45145.454)"/><path d="m -7794,58113.281 a 8.0007995,8.0007995 0 0 0 -6.0312,12.781 l 68.2812,93.938 c 3.3292,-4.329 7.526,-7.914 12.375,-10.219 l -67.7188,-93.125 a 8.0007995,8.0007995 0 0 0 -6.9062,-3.375 z" id="path17568" style="font-size:medium;font-style:normal;font-variant:normal;font-weight:normal;font-stretch:normal;text-indent:0;text-align:start;text-decoration:none;line-height:normal;letter-spacing:normal;word-spacing:normal;text-transform:none;direction:ltr;block-progression:tb;writing-mode:lr-tb;text-anchor:start;baseline-shift:baseline;color:#000000;fill:#FFFFFF;fill-opacity:1;stroke:none;stroke-width:15.99999905;marker:none;visibility:visible;display:inline;overflow:visible;enable-background:accumulate;font-family:Sans;-inkscape-font-specification:Sans" transform="translate(0,-448)"/></g></svg>
